<?xml version="1.0" encoding="UTF-8"?>
<svg xmlns="http://www.w3.org/2000/svg" width="270" height="64" viewBox="0 0 270 64" fill="none">
  <path d="M104.969 29.2665L98.7633 36.107V50H89.0312V0H98.7633V22.6375L118.792 0H131.556L111.739 21.7912L131.697 50H119.497L104.969 29.2665Z" fill="black"></path>
  <path d="M167.423 32.6515C167.423 43.3015 159.595 51.0577 149.228 51.0577C138.861 51.0577 131.033 43.3002 131.033 32.6515C131.033 21.932 138.861 14.2452 149.228 14.2452C159.595 14.2452 167.423 21.932 167.423 32.6515ZM158.043 32.6515C158.043 26.093 153.812 22.7785 149.228 22.7785C144.644 22.7785 140.413 26.093 140.413 32.6515C140.413 39.1395 144.644 42.5245 149.228 42.5245C153.812 42.5245 158.043 39.2102 158.043 32.6515Z" fill="black"></path>
  <path d="M173.283 50V15.303H182.239V19.5343C184.143 16.1493 188.586 14.3155 192.395 14.3155C197.12 14.3155 200.928 16.3608 202.691 20.0985C205.441 15.867 209.108 14.3155 213.692 14.3155C220.11 14.3155 226.245 18.1945 226.245 27.5033V50H217.148V29.4075C217.148 25.6698 215.314 22.8488 211.013 22.8488C206.993 22.8488 204.595 25.9518 204.595 29.6898V50H195.286V29.4075C195.286 25.6698 193.382 22.8488 189.15 22.8488C185.06 22.8488 182.662 25.8813 182.662 29.6898V50H173.283Z" fill="black"></path>
  <path d="M234.064 63.4V15.303H243.162V19.5342C244.713 16.8545 248.592 14.5272 253.812 14.5272C263.967 14.5272 269.82 22.2847 269.82 32.581C269.82 43.0887 263.262 50.846 253.459 50.846C248.663 50.846 245.137 48.942 243.445 46.615V63.4H234.064ZM251.977 22.9202C247.181 22.9202 243.302 26.517 243.302 32.6525C243.302 38.788 247.18 42.455 251.977 42.455C256.773 42.455 260.581 38.8582 260.581 32.6525C260.581 26.516 256.773 22.9192 251.977 22.9192V22.9202Z" fill="black"></path>
  <path d="M0.179688 0V43.3333C0.179688 45.1014 0.882076 46.7971 2.13233 48.0474C3.38259 49.2976 5.07831 50 6.84644 50H53.5129C55.2811 50 56.9768 49.2976 58.227 48.0474C59.4773 46.7971 60.1797 45.1014 60.1797 43.3333V0H0.179688ZM5.95744 32.6668V5.77775H54.4019V32.6668H5.95744ZM55.5129 41.3333C55.5129 42.3941 55.0915 43.4115 54.3414 44.1617C53.5912 44.9118 52.5738 45.3333 51.5129 45.3333C50.4521 45.3333 49.4347 44.9118 48.6845 44.1617C47.9344 43.4115 47.5129 42.3941 47.5129 41.3333C47.5129 40.2724 47.9344 39.255 48.6845 38.5048C49.4347 37.7547 50.4521 37.3332 51.5129 37.3332C52.5738 37.3332 53.5912 37.7547 54.3414 38.5048C55.0915 39.255 55.5129 40.2724 55.5129 41.3333Z" fill="black"></path>
</svg>
